<mxfile host="65bd71144e">
    <diagram id="tr8WCDj-hul7nBdrf4UF" name="Страница 1">
        <mxGraphModel dx="1806" dy="1929" grid="1" gridSize="10" guides="1" tooltips="1" connect="0" arrows="1" fold="1" page="1" pageScale="1" pageWidth="827" pageHeight="1169" math="0" shadow="0">
            <root>
                <mxCell id="0"/>
                <mxCell id="1" parent="0"/>
                <mxCell id="676" style="edgeStyle=orthogonalEdgeStyle;rounded=0;html=1;" edge="1" parent="1" source="3" target="670">
                    <mxGeometry relative="1" as="geometry"/>
                </mxCell>
                <mxCell id="3" value="Запуск" style="rounded=1;whiteSpace=wrap;html=1;arcSize=50;" parent="1" vertex="1">
                    <mxGeometry x="305" y="-250" width="140" height="40" as="geometry"/>
                </mxCell>
                <mxCell id="5" value="&lt;div&gt;#include &amp;lt;iostream&amp;gt;&lt;/div&gt;&lt;div&gt;#include &amp;lt;string&amp;gt;&lt;/div&gt;&lt;div&gt;#include &amp;lt;fstream&amp;gt;&lt;/div&gt;&lt;div&gt;#include &amp;lt;windows.h&amp;gt;&lt;/div&gt;" style="strokeWidth=2;html=1;shape=mxgraph.flowchart.annotation_2;align=left;labelPosition=right;pointerEvents=1;" parent="1" vertex="1">
                    <mxGeometry x="458.01" y="-230" width="20" height="80" as="geometry"/>
                </mxCell>
                <mxCell id="6" value="" style="endArrow=none;dashed=1;html=1;entryX=0;entryY=0.5;entryDx=0;entryDy=0;entryPerimeter=0;" parent="1" target="5" edge="1">
                    <mxGeometry width="50" height="50" relative="1" as="geometry">
                        <mxPoint x="375" y="-190" as="sourcePoint"/>
                        <mxPoint x="465" y="-200" as="targetPoint"/>
                    </mxGeometry>
                </mxCell>
                <mxCell id="7" value="Конец" style="rounded=1;whiteSpace=wrap;html=1;arcSize=50;" parent="1" vertex="1">
                    <mxGeometry x="352.5" y="6850" width="140" height="40" as="geometry"/>
                </mxCell>
                <mxCell id="10" value="return 0;&lt;br&gt;}" style="strokeWidth=2;html=1;shape=mxgraph.flowchart.annotation_2;align=left;labelPosition=right;pointerEvents=1;" parent="1" vertex="1">
                    <mxGeometry x="524.25" y="6800" width="20" height="60" as="geometry"/>
                </mxCell>
                <mxCell id="11" value="" style="endArrow=none;dashed=1;html=1;entryX=0;entryY=0.5;entryDx=0;entryDy=0;entryPerimeter=0;" parent="1" edge="1">
                    <mxGeometry width="50" height="50" relative="1" as="geometry">
                        <mxPoint x="424.25" y="6830" as="sourcePoint"/>
                        <mxPoint x="524.25" y="6830" as="targetPoint"/>
                    </mxGeometry>
                </mxCell>
                <mxCell id="383" value="" style="edgeStyle=orthogonalEdgeStyle;html=1;rounded=0;" parent="1" source="354" target="382" edge="1">
                    <mxGeometry relative="1" as="geometry"/>
                </mxCell>
                <mxCell id="354" value="int main() {" style="ellipse;whiteSpace=wrap;html=1;" parent="1" vertex="1">
                    <mxGeometry x="315" y="150" width="120" height="60" as="geometry"/>
                </mxCell>
                <mxCell id="359" value="&lt;div&gt;void formation(int n)&lt;/div&gt;" style="ellipse;whiteSpace=wrap;html=1;" parent="1" vertex="1">
                    <mxGeometry x="1103.5" y="180" width="227" height="70" as="geometry"/>
                </mxCell>
                <mxCell id="367" style="edgeStyle=orthogonalEdgeStyle;rounded=0;html=1;" parent="1" target="7" edge="1">
                    <mxGeometry relative="1" as="geometry">
                        <mxPoint x="422.5" y="6780" as="sourcePoint"/>
                    </mxGeometry>
                </mxCell>
                <mxCell id="454" value="" style="edgeStyle=orthogonalEdgeStyle;rounded=0;html=1;" parent="1" source="359" edge="1">
                    <mxGeometry relative="1" as="geometry">
                        <mxPoint x="1217" y="290" as="sourcePoint"/>
                        <mxPoint x="1217" y="330" as="targetPoint"/>
                    </mxGeometry>
                </mxCell>
                <mxCell id="457" style="edgeStyle=orthogonalEdgeStyle;html=1;rounded=0;" edge="1" parent="1" source="382" target="455">
                    <mxGeometry relative="1" as="geometry"/>
                </mxCell>
                <mxCell id="382" value="SetConsoleCP(1251);" style="rounded=0;whiteSpace=wrap;html=1;" parent="1" vertex="1">
                    <mxGeometry x="305" y="250" width="140" height="45" as="geometry"/>
                </mxCell>
                <mxCell id="411" style="edgeStyle=orthogonalEdgeStyle;rounded=0;html=1;entryX=0.006;entryY=0.52;entryDx=0;entryDy=0;entryPerimeter=0;" parent="1" source="406" edge="1">
                    <mxGeometry relative="1" as="geometry">
                        <Array as="points">
                            <mxPoint x="510" y="1235"/>
                            <mxPoint x="510" y="1400"/>
                            <mxPoint x="210" y="1400"/>
                            <mxPoint x="210" y="1066"/>
                        </Array>
                        <mxPoint x="295.96000000000004" y="1066" as="targetPoint"/>
                    </mxGeometry>
                </mxCell>
                <mxCell id="458" style="edgeStyle=orthogonalEdgeStyle;rounded=0;html=1;" edge="1" parent="1" source="455" target="456">
                    <mxGeometry relative="1" as="geometry"/>
                </mxCell>
                <mxCell id="455" value="SetConsoleOutputCP(1251);" style="rounded=0;whiteSpace=wrap;html=1;" vertex="1" parent="1">
                    <mxGeometry x="292.5" y="320" width="165" height="45" as="geometry"/>
                </mxCell>
                <mxCell id="463" style="edgeStyle=orthogonalEdgeStyle;rounded=0;html=1;" edge="1" parent="1" source="456" target="459">
                    <mxGeometry relative="1" as="geometry"/>
                </mxCell>
                <mxCell id="456" value="setlocale(LC_ALL, &quot;Russian&quot;);" style="rounded=0;whiteSpace=wrap;html=1;" vertex="1" parent="1">
                    <mxGeometry x="305" y="390" width="140" height="45" as="geometry"/>
                </mxCell>
                <mxCell id="464" style="edgeStyle=orthogonalEdgeStyle;rounded=0;html=1;" edge="1" parent="1" source="459" target="461">
                    <mxGeometry relative="1" as="geometry"/>
                </mxCell>
                <mxCell id="459" value="int n;" style="rounded=0;whiteSpace=wrap;html=1;" vertex="1" parent="1">
                    <mxGeometry x="305" y="460" width="140" height="45" as="geometry"/>
                </mxCell>
                <mxCell id="466" style="edgeStyle=orthogonalEdgeStyle;rounded=0;html=1;" edge="1" parent="1" source="460" target="462">
                    <mxGeometry relative="1" as="geometry"/>
                </mxCell>
                <mxCell id="460" value="string del;" style="rounded=0;whiteSpace=wrap;html=1;" vertex="1" parent="1">
                    <mxGeometry x="305" y="600" width="140" height="45" as="geometry"/>
                </mxCell>
                <mxCell id="465" style="edgeStyle=orthogonalEdgeStyle;rounded=0;html=1;" edge="1" parent="1" source="461" target="460">
                    <mxGeometry relative="1" as="geometry"/>
                </mxCell>
                <mxCell id="461" value="int new_i;" style="rounded=0;whiteSpace=wrap;html=1;" vertex="1" parent="1">
                    <mxGeometry x="305" y="530" width="140" height="45" as="geometry"/>
                </mxCell>
                <mxCell id="468" style="edgeStyle=orthogonalEdgeStyle;rounded=0;html=1;" edge="1" parent="1" source="462" target="467">
                    <mxGeometry relative="1" as="geometry"/>
                </mxCell>
                <mxCell id="462" value="int tmp = -1;" style="rounded=0;whiteSpace=wrap;html=1;" vertex="1" parent="1">
                    <mxGeometry x="305" y="670" width="140" height="45" as="geometry"/>
                </mxCell>
                <mxCell id="470" style="edgeStyle=orthogonalEdgeStyle;rounded=0;html=1;" edge="1" parent="1" source="467" target="469">
                    <mxGeometry relative="1" as="geometry"/>
                </mxCell>
                <mxCell id="467" value="cout &amp;lt;&amp;lt; &quot;Количество работников (Максимум 10): &quot;;" style="shape=parallelogram;perimeter=parallelogramPerimeter;whiteSpace=wrap;html=1;fixedSize=1;" vertex="1" parent="1">
                    <mxGeometry x="265" y="740" width="220" height="40" as="geometry"/>
                </mxCell>
                <mxCell id="472" style="edgeStyle=orthogonalEdgeStyle;rounded=0;html=1;" edge="1" parent="1" source="469" target="471">
                    <mxGeometry relative="1" as="geometry"/>
                </mxCell>
                <mxCell id="469" value="cin &amp;gt;&amp;gt; n;" style="shape=parallelogram;perimeter=parallelogramPerimeter;whiteSpace=wrap;html=1;fixedSize=1;" vertex="1" parent="1">
                    <mxGeometry x="265" y="810" width="220" height="40" as="geometry"/>
                </mxCell>
                <mxCell id="474" style="edgeStyle=orthogonalEdgeStyle;rounded=0;html=1;" edge="1" parent="1" source="471" target="473">
                    <mxGeometry relative="1" as="geometry"/>
                </mxCell>
                <mxCell id="471" value="formation(n);" style="verticalLabelPosition=middle;verticalAlign=middle;html=1;shape=process;whiteSpace=wrap;rounded=0;size=0.06666666666666667;arcSize=6;labelPosition=center;align=center;" vertex="1" parent="1">
                    <mxGeometry x="300" y="880" width="150" height="60" as="geometry"/>
                </mxCell>
                <mxCell id="476" style="edgeStyle=orthogonalEdgeStyle;rounded=0;html=1;" edge="1" parent="1" source="473" target="475">
                    <mxGeometry relative="1" as="geometry"/>
                </mxCell>
                <mxCell id="473" value="cout &amp;lt;&amp;lt; &quot;Введите фамилию того сотрудника, которого хотите удалить: &quot;;" style="shape=parallelogram;perimeter=parallelogramPerimeter;whiteSpace=wrap;html=1;fixedSize=1;" vertex="1" parent="1">
                    <mxGeometry x="252.5" y="970" width="245" height="60" as="geometry"/>
                </mxCell>
                <mxCell id="478" style="edgeStyle=orthogonalEdgeStyle;rounded=0;html=1;" edge="1" parent="1" source="475" target="477">
                    <mxGeometry relative="1" as="geometry"/>
                </mxCell>
                <mxCell id="475" value="cin &amp;gt;&amp;gt; del;" style="shape=parallelogram;perimeter=parallelogramPerimeter;whiteSpace=wrap;html=1;fixedSize=1;" vertex="1" parent="1">
                    <mxGeometry x="291.25" y="1060" width="167.5" height="30" as="geometry"/>
                </mxCell>
                <mxCell id="480" value="1" style="edgeStyle=orthogonalEdgeStyle;rounded=0;html=1;" edge="1" parent="1" source="477" target="479">
                    <mxGeometry relative="1" as="geometry"/>
                </mxCell>
                <mxCell id="533" style="edgeStyle=orthogonalEdgeStyle;rounded=0;html=1;" edge="1" parent="1" source="477" target="532">
                    <mxGeometry relative="1" as="geometry">
                        <Array as="points">
                            <mxPoint x="620" y="1144"/>
                            <mxPoint x="620" y="2500"/>
                            <mxPoint x="423" y="2500"/>
                        </Array>
                    </mxGeometry>
                </mxCell>
                <mxCell id="477" value="for (int i = 0; i &amp;lt; n; i++)" style="shape=hexagon;perimeter=hexagonPerimeter2;whiteSpace=wrap;html=1;fixedSize=1;" vertex="1" parent="1">
                    <mxGeometry x="295" y="1119" width="160" height="50" as="geometry"/>
                </mxCell>
                <mxCell id="482" value="1" style="edgeStyle=orthogonalEdgeStyle;rounded=0;html=1;" edge="1" parent="1" source="479" target="481">
                    <mxGeometry relative="1" as="geometry"/>
                </mxCell>
                <mxCell id="528" style="edgeStyle=orthogonalEdgeStyle;rounded=0;html=1;" edge="1" parent="1" source="479">
                    <mxGeometry relative="1" as="geometry">
                        <mxPoint x="430" y="2420" as="targetPoint"/>
                        <Array as="points">
                            <mxPoint x="550" y="1235"/>
                            <mxPoint x="550" y="2420"/>
                        </Array>
                    </mxGeometry>
                </mxCell>
                <mxCell id="479" value="if (line[i].postname == del)" style="rhombus;whiteSpace=wrap;html=1;" vertex="1" parent="1">
                    <mxGeometry x="292.5" y="1200" width="165" height="70" as="geometry"/>
                </mxCell>
                <mxCell id="484" style="edgeStyle=orthogonalEdgeStyle;rounded=0;html=1;" edge="1" parent="1" source="481" target="483">
                    <mxGeometry relative="1" as="geometry"/>
                </mxCell>
                <mxCell id="481" value="tmp = i;" style="rounded=0;whiteSpace=wrap;html=1;" vertex="1" parent="1">
                    <mxGeometry x="160" y="1280" width="120" height="40" as="geometry"/>
                </mxCell>
                <mxCell id="490" value="1" style="edgeStyle=orthogonalEdgeStyle;rounded=0;html=1;" edge="1" parent="1" source="483" target="485">
                    <mxGeometry relative="1" as="geometry"/>
                </mxCell>
                <mxCell id="526" value="0" style="edgeStyle=orthogonalEdgeStyle;rounded=0;html=1;" edge="1" parent="1" source="483" target="513">
                    <mxGeometry x="-0.9433" relative="1" as="geometry">
                        <Array as="points">
                            <mxPoint x="360" y="1375"/>
                            <mxPoint x="360" y="1860"/>
                            <mxPoint x="220" y="1860"/>
                        </Array>
                        <mxPoint as="offset"/>
                    </mxGeometry>
                </mxCell>
                <mxCell id="483" value="for (int j = 0; j &amp;lt; i; j++)" style="shape=hexagon;perimeter=hexagonPerimeter2;whiteSpace=wrap;html=1;fixedSize=1;" vertex="1" parent="1">
                    <mxGeometry x="140" y="1350" width="160" height="50" as="geometry"/>
                </mxCell>
                <mxCell id="491" style="edgeStyle=orthogonalEdgeStyle;rounded=0;html=1;" edge="1" parent="1" source="485" target="489">
                    <mxGeometry relative="1" as="geometry"/>
                </mxCell>
                <mxCell id="485" value="line2[j].postname = line[j].postname;" style="rounded=0;whiteSpace=wrap;html=1;" vertex="1" parent="1">
                    <mxGeometry x="110" y="1440" width="220" height="40" as="geometry"/>
                </mxCell>
                <mxCell id="494" style="edgeStyle=orthogonalEdgeStyle;rounded=0;html=1;" edge="1" parent="1" source="486" target="487">
                    <mxGeometry relative="1" as="geometry"/>
                </mxCell>
                <mxCell id="486" value="line2[j].post = line[j].post;" style="rounded=0;whiteSpace=wrap;html=1;" vertex="1" parent="1">
                    <mxGeometry x="110" y="1650" width="220" height="40" as="geometry"/>
                </mxCell>
                <mxCell id="496" style="edgeStyle=orthogonalEdgeStyle;rounded=0;html=1;" edge="1" parent="1" source="487" target="495">
                    <mxGeometry relative="1" as="geometry"/>
                </mxCell>
                <mxCell id="487" value="line2[j].birth = line[j].birth;" style="rounded=0;whiteSpace=wrap;html=1;" vertex="1" parent="1">
                    <mxGeometry x="110" y="1714" width="220" height="40" as="geometry"/>
                </mxCell>
                <mxCell id="493" style="edgeStyle=orthogonalEdgeStyle;rounded=0;html=1;" edge="1" parent="1" source="488" target="486">
                    <mxGeometry relative="1" as="geometry"/>
                </mxCell>
                <mxCell id="488" value="line2[j].parton = line[j].parton;" style="rounded=0;whiteSpace=wrap;html=1;" vertex="1" parent="1">
                    <mxGeometry x="110" y="1580" width="220" height="40" as="geometry"/>
                </mxCell>
                <mxCell id="492" style="edgeStyle=orthogonalEdgeStyle;rounded=0;html=1;" edge="1" parent="1" source="489" target="488">
                    <mxGeometry relative="1" as="geometry"/>
                </mxCell>
                <mxCell id="489" value="line2[j].name = line[j].name;" style="rounded=0;whiteSpace=wrap;html=1;" vertex="1" parent="1">
                    <mxGeometry x="110" y="1510" width="220" height="40" as="geometry"/>
                </mxCell>
                <mxCell id="497" style="edgeStyle=orthogonalEdgeStyle;rounded=0;html=1;entryX=-0.006;entryY=0.52;entryDx=0;entryDy=0;entryPerimeter=0;" edge="1" parent="1" source="495" target="483">
                    <mxGeometry relative="1" as="geometry">
                        <Array as="points">
                            <mxPoint x="220" y="1850"/>
                            <mxPoint x="50" y="1850"/>
                            <mxPoint x="50" y="1376"/>
                        </Array>
                    </mxGeometry>
                </mxCell>
                <mxCell id="495" value="line2[j].money = line[j].money;" style="rounded=0;whiteSpace=wrap;html=1;" vertex="1" parent="1">
                    <mxGeometry x="110" y="1780" width="220" height="40" as="geometry"/>
                </mxCell>
                <mxCell id="512" value="1" style="edgeStyle=orthogonalEdgeStyle;rounded=0;html=1;" edge="1" parent="1" source="513" target="515">
                    <mxGeometry relative="1" as="geometry"/>
                </mxCell>
                <mxCell id="529" style="edgeStyle=orthogonalEdgeStyle;rounded=0;html=1;" edge="1" parent="1" source="513">
                    <mxGeometry relative="1" as="geometry">
                        <mxPoint x="430" y="2420" as="targetPoint"/>
                        <Array as="points">
                            <mxPoint x="370" y="1905"/>
                            <mxPoint x="370" y="2420"/>
                        </Array>
                    </mxGeometry>
                </mxCell>
                <mxCell id="513" value="for (int j = i + 1; j &amp;lt; n; j++)" style="shape=hexagon;perimeter=hexagonPerimeter2;whiteSpace=wrap;html=1;fixedSize=1;" vertex="1" parent="1">
                    <mxGeometry x="140" y="1880" width="160" height="50" as="geometry"/>
                </mxCell>
                <mxCell id="514" style="edgeStyle=orthogonalEdgeStyle;rounded=0;html=1;" edge="1" parent="1" source="515" target="523">
                    <mxGeometry relative="1" as="geometry"/>
                </mxCell>
                <mxCell id="515" value="line2[j - 1].postname = line[j].postname;" style="rounded=0;whiteSpace=wrap;html=1;" vertex="1" parent="1">
                    <mxGeometry x="110" y="1970" width="220" height="40" as="geometry"/>
                </mxCell>
                <mxCell id="516" style="edgeStyle=orthogonalEdgeStyle;rounded=0;html=1;" edge="1" parent="1" source="517" target="519">
                    <mxGeometry relative="1" as="geometry"/>
                </mxCell>
                <mxCell id="517" value="line2[j - 1].post = line[j].post;" style="rounded=0;whiteSpace=wrap;html=1;" vertex="1" parent="1">
                    <mxGeometry x="110" y="2180" width="220" height="40" as="geometry"/>
                </mxCell>
                <mxCell id="518" style="edgeStyle=orthogonalEdgeStyle;rounded=0;html=1;" edge="1" parent="1" source="519" target="525">
                    <mxGeometry relative="1" as="geometry"/>
                </mxCell>
                <mxCell id="519" value="line2[j - 1].birth = line[j].birth;" style="rounded=0;whiteSpace=wrap;html=1;" vertex="1" parent="1">
                    <mxGeometry x="110" y="2244" width="220" height="40" as="geometry"/>
                </mxCell>
                <mxCell id="520" style="edgeStyle=orthogonalEdgeStyle;rounded=0;html=1;" edge="1" parent="1" source="521" target="517">
                    <mxGeometry relative="1" as="geometry"/>
                </mxCell>
                <mxCell id="521" value="line2[j - 1].parton = line[j].parton;" style="rounded=0;whiteSpace=wrap;html=1;" vertex="1" parent="1">
                    <mxGeometry x="110" y="2110" width="220" height="40" as="geometry"/>
                </mxCell>
                <mxCell id="522" style="edgeStyle=orthogonalEdgeStyle;rounded=0;html=1;" edge="1" parent="1" source="523" target="521">
                    <mxGeometry relative="1" as="geometry"/>
                </mxCell>
                <mxCell id="523" value="line2[j - 1].name = line[j].name;" style="rounded=0;whiteSpace=wrap;html=1;" vertex="1" parent="1">
                    <mxGeometry x="110" y="2040" width="220" height="40" as="geometry"/>
                </mxCell>
                <mxCell id="524" style="edgeStyle=orthogonalEdgeStyle;rounded=0;html=1;entryX=-0.006;entryY=0.52;entryDx=0;entryDy=0;entryPerimeter=0;" edge="1" parent="1" source="525" target="513">
                    <mxGeometry relative="1" as="geometry">
                        <Array as="points">
                            <mxPoint x="220" y="2380"/>
                            <mxPoint x="50" y="2380"/>
                            <mxPoint x="50" y="1906"/>
                        </Array>
                    </mxGeometry>
                </mxCell>
                <mxCell id="525" value="line2[j - 1].money = line[j].money;" style="rounded=0;whiteSpace=wrap;html=1;" vertex="1" parent="1">
                    <mxGeometry x="110" y="2310" width="220" height="40" as="geometry"/>
                </mxCell>
                <mxCell id="531" value="" style="endArrow=classic;html=1;rounded=0;entryX=-0.005;entryY=0.484;entryDx=0;entryDy=0;entryPerimeter=0;" edge="1" parent="1" target="477">
                    <mxGeometry width="50" height="50" relative="1" as="geometry">
                        <mxPoint x="430" y="2419.090909090909" as="sourcePoint"/>
                        <mxPoint x="450" y="1740" as="targetPoint"/>
                        <Array as="points">
                            <mxPoint x="430" y="2470"/>
                            <mxPoint x="-20" y="2470"/>
                            <mxPoint x="-20" y="1140"/>
                        </Array>
                    </mxGeometry>
                </mxCell>
                <mxCell id="535" value="1" style="edgeStyle=orthogonalEdgeStyle;rounded=0;html=1;" edge="1" parent="1" source="532" target="534">
                    <mxGeometry relative="1" as="geometry">
                        <Array as="points">
                            <mxPoint x="211" y="2565"/>
                        </Array>
                    </mxGeometry>
                </mxCell>
                <mxCell id="536" style="edgeStyle=orthogonalEdgeStyle;rounded=0;html=1;" edge="1" parent="1" source="532">
                    <mxGeometry relative="1" as="geometry">
                        <mxPoint x="420" y="2750" as="targetPoint"/>
                        <Array as="points">
                            <mxPoint x="590" y="2565"/>
                            <mxPoint x="590" y="2750"/>
                        </Array>
                    </mxGeometry>
                </mxCell>
                <mxCell id="532" value="if (tmp == -1)" style="rhombus;whiteSpace=wrap;html=1;" vertex="1" parent="1">
                    <mxGeometry x="340" y="2530" width="165" height="70" as="geometry"/>
                </mxCell>
                <mxCell id="537" style="edgeStyle=orthogonalEdgeStyle;rounded=0;html=1;" edge="1" parent="1" source="534">
                    <mxGeometry relative="1" as="geometry">
                        <mxPoint x="420" y="2750" as="targetPoint"/>
                        <Array as="points">
                            <mxPoint x="211" y="2750"/>
                        </Array>
                    </mxGeometry>
                </mxCell>
                <mxCell id="534" value="cout &amp;lt;&amp;lt; &quot;Не найден такой сотрудник&quot; &amp;lt;&amp;lt; endl;" style="shape=parallelogram;perimeter=parallelogramPerimeter;whiteSpace=wrap;html=1;fixedSize=1;" vertex="1" parent="1">
                    <mxGeometry x="70" y="2650" width="282.5" height="40" as="geometry"/>
                </mxCell>
                <mxCell id="542" style="edgeStyle=orthogonalEdgeStyle;rounded=0;html=1;" edge="1" parent="1" source="538" target="540">
                    <mxGeometry relative="1" as="geometry"/>
                </mxCell>
                <mxCell id="538" value="cout &amp;lt;&amp;lt; &quot;После какого сотрудника добавить? Всего их: &quot; &amp;lt;&amp;lt; (n - 1) &amp;lt;&amp;lt; endl;" style="shape=parallelogram;perimeter=parallelogramPerimeter;whiteSpace=wrap;html=1;fixedSize=1;" vertex="1" parent="1">
                    <mxGeometry x="280" y="2800" width="282.5" height="40" as="geometry"/>
                </mxCell>
                <mxCell id="539" value="" style="endArrow=classic;html=1;rounded=0;" edge="1" parent="1" target="538">
                    <mxGeometry width="50" height="50" relative="1" as="geometry">
                        <mxPoint x="420" y="2750" as="sourcePoint"/>
                        <mxPoint x="440" y="2630" as="targetPoint"/>
                    </mxGeometry>
                </mxCell>
                <mxCell id="543" style="edgeStyle=orthogonalEdgeStyle;rounded=0;html=1;" edge="1" parent="1" source="540" target="541">
                    <mxGeometry relative="1" as="geometry"/>
                </mxCell>
                <mxCell id="540" value="cin &amp;gt;&amp;gt; new_i;" style="shape=parallelogram;perimeter=parallelogramPerimeter;whiteSpace=wrap;html=1;fixedSize=1;" vertex="1" parent="1">
                    <mxGeometry x="280" y="2870" width="282.5" height="40" as="geometry"/>
                </mxCell>
                <mxCell id="545" style="edgeStyle=orthogonalEdgeStyle;rounded=0;html=1;" edge="1" parent="1" source="541" target="544">
                    <mxGeometry relative="1" as="geometry"/>
                </mxCell>
                <mxCell id="541" value="cout &amp;lt;&amp;lt; &quot;Какого сотрудника?&quot; &amp;lt;&amp;lt; endl;" style="shape=parallelogram;perimeter=parallelogramPerimeter;whiteSpace=wrap;html=1;fixedSize=1;" vertex="1" parent="1">
                    <mxGeometry x="280" y="2940" width="282.5" height="40" as="geometry"/>
                </mxCell>
                <mxCell id="547" style="edgeStyle=orthogonalEdgeStyle;rounded=0;html=1;" edge="1" parent="1" source="544" target="546">
                    <mxGeometry relative="1" as="geometry"/>
                </mxCell>
                <mxCell id="544" value="cout &amp;lt;&amp;lt; &quot;Введите Фамилию: &quot;;" style="shape=parallelogram;perimeter=parallelogramPerimeter;whiteSpace=wrap;html=1;fixedSize=1;" vertex="1" parent="1">
                    <mxGeometry x="280" y="3010" width="282.5" height="40" as="geometry"/>
                </mxCell>
                <mxCell id="564" style="edgeStyle=orthogonalEdgeStyle;rounded=0;html=1;" edge="1" parent="1" source="546" target="549">
                    <mxGeometry relative="1" as="geometry"/>
                </mxCell>
                <mxCell id="546" value="cin &amp;gt;&amp;gt; tmpWork.postname;" style="shape=parallelogram;perimeter=parallelogramPerimeter;whiteSpace=wrap;html=1;fixedSize=1;" vertex="1" parent="1">
                    <mxGeometry x="280" y="3080" width="282.5" height="40" as="geometry"/>
                </mxCell>
                <mxCell id="548" style="edgeStyle=orthogonalEdgeStyle;rounded=0;html=1;" edge="1" parent="1" source="549" target="550">
                    <mxGeometry relative="1" as="geometry"/>
                </mxCell>
                <mxCell id="549" value="cout &amp;lt;&amp;lt; &quot;Введите Имя: &quot;;" style="shape=parallelogram;perimeter=parallelogramPerimeter;whiteSpace=wrap;html=1;fixedSize=1;" vertex="1" parent="1">
                    <mxGeometry x="280" y="3140" width="282.5" height="40" as="geometry"/>
                </mxCell>
                <mxCell id="565" style="edgeStyle=orthogonalEdgeStyle;rounded=0;html=1;" edge="1" parent="1" source="550" target="552">
                    <mxGeometry relative="1" as="geometry"/>
                </mxCell>
                <mxCell id="550" value="cin &amp;gt;&amp;gt; tmpWork.name;" style="shape=parallelogram;perimeter=parallelogramPerimeter;whiteSpace=wrap;html=1;fixedSize=1;" vertex="1" parent="1">
                    <mxGeometry x="280" y="3210" width="282.5" height="40" as="geometry"/>
                </mxCell>
                <mxCell id="551" style="edgeStyle=orthogonalEdgeStyle;rounded=0;html=1;" edge="1" parent="1" source="552" target="553">
                    <mxGeometry relative="1" as="geometry"/>
                </mxCell>
                <mxCell id="552" value="cout &amp;lt;&amp;lt; &quot;Введите Отчество: &quot;;" style="shape=parallelogram;perimeter=parallelogramPerimeter;whiteSpace=wrap;html=1;fixedSize=1;" vertex="1" parent="1">
                    <mxGeometry x="280" y="3270" width="282.5" height="40" as="geometry"/>
                </mxCell>
                <mxCell id="566" style="edgeStyle=orthogonalEdgeStyle;rounded=0;html=1;" edge="1" parent="1" source="553" target="555">
                    <mxGeometry relative="1" as="geometry"/>
                </mxCell>
                <mxCell id="553" value="cin &amp;gt;&amp;gt; tmpWork.parton;" style="shape=parallelogram;perimeter=parallelogramPerimeter;whiteSpace=wrap;html=1;fixedSize=1;" vertex="1" parent="1">
                    <mxGeometry x="280" y="3340" width="282.5" height="40" as="geometry"/>
                </mxCell>
                <mxCell id="554" style="edgeStyle=orthogonalEdgeStyle;rounded=0;html=1;" edge="1" parent="1" source="555" target="556">
                    <mxGeometry relative="1" as="geometry"/>
                </mxCell>
                <mxCell id="555" value="cout &amp;lt;&amp;lt; &quot;Введите Должность: &quot;;" style="shape=parallelogram;perimeter=parallelogramPerimeter;whiteSpace=wrap;html=1;fixedSize=1;" vertex="1" parent="1">
                    <mxGeometry x="280" y="3400" width="282.5" height="40" as="geometry"/>
                </mxCell>
                <mxCell id="567" style="edgeStyle=orthogonalEdgeStyle;rounded=0;html=1;" edge="1" parent="1" source="556" target="558">
                    <mxGeometry relative="1" as="geometry"/>
                </mxCell>
                <mxCell id="556" value="cin &amp;gt;&amp;gt; tmpWork.post;" style="shape=parallelogram;perimeter=parallelogramPerimeter;whiteSpace=wrap;html=1;fixedSize=1;" vertex="1" parent="1">
                    <mxGeometry x="280" y="3470" width="282.5" height="40" as="geometry"/>
                </mxCell>
                <mxCell id="557" style="edgeStyle=orthogonalEdgeStyle;rounded=0;html=1;" edge="1" parent="1" source="558" target="559">
                    <mxGeometry relative="1" as="geometry"/>
                </mxCell>
                <mxCell id="558" value="cout &amp;lt;&amp;lt; &quot;Введите Дату Рождения: &quot;;" style="shape=parallelogram;perimeter=parallelogramPerimeter;whiteSpace=wrap;html=1;fixedSize=1;" vertex="1" parent="1">
                    <mxGeometry x="280" y="3530" width="282.5" height="40" as="geometry"/>
                </mxCell>
                <mxCell id="568" style="edgeStyle=orthogonalEdgeStyle;rounded=0;html=1;" edge="1" parent="1" source="559" target="561">
                    <mxGeometry relative="1" as="geometry"/>
                </mxCell>
                <mxCell id="559" value="cin &amp;gt;&amp;gt; tmpWork.birth;" style="shape=parallelogram;perimeter=parallelogramPerimeter;whiteSpace=wrap;html=1;fixedSize=1;" vertex="1" parent="1">
                    <mxGeometry x="280" y="3600" width="282.5" height="40" as="geometry"/>
                </mxCell>
                <mxCell id="560" style="edgeStyle=orthogonalEdgeStyle;rounded=0;html=1;" edge="1" parent="1" source="561" target="562">
                    <mxGeometry relative="1" as="geometry"/>
                </mxCell>
                <mxCell id="561" value="cout &amp;lt;&amp;lt; &quot;Введите Заработную плату: &quot;;" style="shape=parallelogram;perimeter=parallelogramPerimeter;whiteSpace=wrap;html=1;fixedSize=1;" vertex="1" parent="1">
                    <mxGeometry x="280" y="3660" width="282.5" height="40" as="geometry"/>
                </mxCell>
                <mxCell id="570" style="edgeStyle=orthogonalEdgeStyle;rounded=0;html=1;" edge="1" parent="1" source="562" target="569">
                    <mxGeometry relative="1" as="geometry"/>
                </mxCell>
                <mxCell id="562" value="cin &amp;gt;&amp;gt; tmpWork.money;" style="shape=parallelogram;perimeter=parallelogramPerimeter;whiteSpace=wrap;html=1;fixedSize=1;" vertex="1" parent="1">
                    <mxGeometry x="280" y="3730" width="282.5" height="40" as="geometry"/>
                </mxCell>
                <mxCell id="572" style="edgeStyle=orthogonalEdgeStyle;rounded=0;html=1;" edge="1" parent="1" source="569" target="571">
                    <mxGeometry relative="1" as="geometry"/>
                </mxCell>
                <mxCell id="569" value="cout &amp;lt;&amp;lt; endl;" style="shape=parallelogram;perimeter=parallelogramPerimeter;whiteSpace=wrap;html=1;fixedSize=1;" vertex="1" parent="1">
                    <mxGeometry x="280" y="3790" width="282.5" height="40" as="geometry"/>
                </mxCell>
                <mxCell id="584" value="1" style="edgeStyle=orthogonalEdgeStyle;rounded=0;html=1;" edge="1" parent="1" source="571" target="574">
                    <mxGeometry relative="1" as="geometry"/>
                </mxCell>
                <mxCell id="598" value="0" style="edgeStyle=orthogonalEdgeStyle;rounded=0;html=1;" edge="1" parent="1" source="571" target="588">
                    <mxGeometry x="-0.9246" relative="1" as="geometry">
                        <Array as="points">
                            <mxPoint x="590" y="3885"/>
                            <mxPoint x="590" y="4370"/>
                            <mxPoint x="421" y="4370"/>
                        </Array>
                        <mxPoint as="offset"/>
                    </mxGeometry>
                </mxCell>
                <mxCell id="571" value="for (int i = 0; i &amp;lt; new_i; i++)" style="shape=hexagon;perimeter=hexagonPerimeter2;whiteSpace=wrap;html=1;fixedSize=1;" vertex="1" parent="1">
                    <mxGeometry x="341.25" y="3860" width="160" height="50" as="geometry"/>
                </mxCell>
                <mxCell id="573" style="edgeStyle=orthogonalEdgeStyle;rounded=0;html=1;" edge="1" parent="1" source="574" target="582">
                    <mxGeometry relative="1" as="geometry"/>
                </mxCell>
                <mxCell id="574" value="line3[i].postname = line2[i].postname;" style="rounded=0;whiteSpace=wrap;html=1;" vertex="1" parent="1">
                    <mxGeometry x="311.25" y="3950" width="220" height="40" as="geometry"/>
                </mxCell>
                <mxCell id="575" style="edgeStyle=orthogonalEdgeStyle;rounded=0;html=1;" edge="1" parent="1" source="576" target="578">
                    <mxGeometry relative="1" as="geometry"/>
                </mxCell>
                <mxCell id="576" value="line3[i].post = line2[i].post;" style="rounded=0;whiteSpace=wrap;html=1;" vertex="1" parent="1">
                    <mxGeometry x="311.25" y="4160" width="220" height="40" as="geometry"/>
                </mxCell>
                <mxCell id="577" style="edgeStyle=orthogonalEdgeStyle;rounded=0;html=1;" edge="1" parent="1" source="578" target="583">
                    <mxGeometry relative="1" as="geometry"/>
                </mxCell>
                <mxCell id="578" value="line3[i].birth = line2[i].birth;" style="rounded=0;whiteSpace=wrap;html=1;" vertex="1" parent="1">
                    <mxGeometry x="311.25" y="4224" width="220" height="40" as="geometry"/>
                </mxCell>
                <mxCell id="579" style="edgeStyle=orthogonalEdgeStyle;rounded=0;html=1;" edge="1" parent="1" source="580" target="576">
                    <mxGeometry relative="1" as="geometry"/>
                </mxCell>
                <mxCell id="580" value="line3[i].parton = line2[i].parton;" style="rounded=0;whiteSpace=wrap;html=1;" vertex="1" parent="1">
                    <mxGeometry x="311.25" y="4090" width="220" height="40" as="geometry"/>
                </mxCell>
                <mxCell id="581" style="edgeStyle=orthogonalEdgeStyle;rounded=0;html=1;" edge="1" parent="1" source="582" target="580">
                    <mxGeometry relative="1" as="geometry"/>
                </mxCell>
                <mxCell id="582" value="line3[i].name = line2[i].name;" style="rounded=0;whiteSpace=wrap;html=1;" vertex="1" parent="1">
                    <mxGeometry x="311.25" y="4020" width="220" height="40" as="geometry"/>
                </mxCell>
                <mxCell id="586" style="edgeStyle=orthogonalEdgeStyle;rounded=0;html=1;entryX=-0.003;entryY=0.507;entryDx=0;entryDy=0;entryPerimeter=0;" edge="1" parent="1" source="583" target="571">
                    <mxGeometry relative="1" as="geometry">
                        <Array as="points">
                            <mxPoint x="421" y="4350"/>
                            <mxPoint x="270" y="4350"/>
                            <mxPoint x="270" y="3885"/>
                        </Array>
                    </mxGeometry>
                </mxCell>
                <mxCell id="583" value="line3[i].money = line2[i].money;" style="rounded=0;whiteSpace=wrap;html=1;" vertex="1" parent="1">
                    <mxGeometry x="311.25" y="4290" width="220" height="40" as="geometry"/>
                </mxCell>
                <mxCell id="587" style="edgeStyle=orthogonalEdgeStyle;rounded=0;html=1;" edge="1" parent="1" source="588" target="596">
                    <mxGeometry relative="1" as="geometry"/>
                </mxCell>
                <mxCell id="588" value="line3[new_i].postname = tmpWork.postname;" style="rounded=0;whiteSpace=wrap;html=1;" vertex="1" parent="1">
                    <mxGeometry x="311.25" y="4390" width="220" height="40" as="geometry"/>
                </mxCell>
                <mxCell id="589" style="edgeStyle=orthogonalEdgeStyle;rounded=0;html=1;" edge="1" parent="1" source="590" target="592">
                    <mxGeometry relative="1" as="geometry"/>
                </mxCell>
                <mxCell id="590" value="line3[new_i].post = tmpWork.post;" style="rounded=0;whiteSpace=wrap;html=1;" vertex="1" parent="1">
                    <mxGeometry x="311.25" y="4600" width="220" height="40" as="geometry"/>
                </mxCell>
                <mxCell id="591" style="edgeStyle=orthogonalEdgeStyle;rounded=0;html=1;" edge="1" parent="1" source="592" target="597">
                    <mxGeometry relative="1" as="geometry"/>
                </mxCell>
                <mxCell id="592" value="line3[new_i].birth = tmpWork.birth;" style="rounded=0;whiteSpace=wrap;html=1;" vertex="1" parent="1">
                    <mxGeometry x="311.25" y="4664" width="220" height="40" as="geometry"/>
                </mxCell>
                <mxCell id="593" style="edgeStyle=orthogonalEdgeStyle;rounded=0;html=1;" edge="1" parent="1" source="594" target="590">
                    <mxGeometry relative="1" as="geometry"/>
                </mxCell>
                <mxCell id="594" value="line3[new_i].parton = tmpWork.parton;" style="rounded=0;whiteSpace=wrap;html=1;" vertex="1" parent="1">
                    <mxGeometry x="311.25" y="4530" width="220" height="40" as="geometry"/>
                </mxCell>
                <mxCell id="595" style="edgeStyle=orthogonalEdgeStyle;rounded=0;html=1;" edge="1" parent="1" source="596" target="594">
                    <mxGeometry relative="1" as="geometry"/>
                </mxCell>
                <mxCell id="596" value="line3[new_i].name = tmpWork.name;" style="rounded=0;whiteSpace=wrap;html=1;" vertex="1" parent="1">
                    <mxGeometry x="311.25" y="4460" width="220" height="40" as="geometry"/>
                </mxCell>
                <mxCell id="613" style="edgeStyle=orthogonalEdgeStyle;rounded=0;html=1;" edge="1" parent="1" source="597" target="600">
                    <mxGeometry relative="1" as="geometry"/>
                </mxCell>
                <mxCell id="597" value="line3[new_i].money = tmpWork.money;" style="rounded=0;whiteSpace=wrap;html=1;" vertex="1" parent="1">
                    <mxGeometry x="311.25" y="4730" width="220" height="40" as="geometry"/>
                </mxCell>
                <mxCell id="599" value="1" style="edgeStyle=orthogonalEdgeStyle;rounded=0;html=1;" edge="1" parent="1" source="600" target="602">
                    <mxGeometry relative="1" as="geometry"/>
                </mxCell>
                <mxCell id="615" value="0" style="edgeStyle=orthogonalEdgeStyle;rounded=0;html=1;" edge="1" parent="1" source="600" target="614">
                    <mxGeometry x="-0.9226" relative="1" as="geometry">
                        <Array as="points">
                            <mxPoint x="580" y="4825"/>
                            <mxPoint x="580" y="5310"/>
                            <mxPoint x="421" y="5310"/>
                        </Array>
                        <mxPoint as="offset"/>
                    </mxGeometry>
                </mxCell>
                <mxCell id="600" value="for (int i = new_i + 1; i &amp;lt; n; i++)" style="shape=hexagon;perimeter=hexagonPerimeter2;whiteSpace=wrap;html=1;fixedSize=1;" vertex="1" parent="1">
                    <mxGeometry x="341.25" y="4800" width="160" height="50" as="geometry"/>
                </mxCell>
                <mxCell id="601" style="edgeStyle=orthogonalEdgeStyle;rounded=0;html=1;" edge="1" parent="1" source="602" target="610">
                    <mxGeometry relative="1" as="geometry"/>
                </mxCell>
                <mxCell id="602" value="line3[i].postname = line2[i - 1].postname;" style="rounded=0;whiteSpace=wrap;html=1;" vertex="1" parent="1">
                    <mxGeometry x="311.25" y="4890" width="220" height="40" as="geometry"/>
                </mxCell>
                <mxCell id="603" style="edgeStyle=orthogonalEdgeStyle;rounded=0;html=1;" edge="1" parent="1" source="604" target="606">
                    <mxGeometry relative="1" as="geometry"/>
                </mxCell>
                <mxCell id="604" value="line3[i].post = line2[i - 1].post;" style="rounded=0;whiteSpace=wrap;html=1;" vertex="1" parent="1">
                    <mxGeometry x="311.25" y="5100" width="220" height="40" as="geometry"/>
                </mxCell>
                <mxCell id="605" style="edgeStyle=orthogonalEdgeStyle;rounded=0;html=1;" edge="1" parent="1" source="606" target="612">
                    <mxGeometry relative="1" as="geometry"/>
                </mxCell>
                <mxCell id="606" value="line3[i].birth = line2[i - 1].birth;" style="rounded=0;whiteSpace=wrap;html=1;" vertex="1" parent="1">
                    <mxGeometry x="311.25" y="5164" width="220" height="40" as="geometry"/>
                </mxCell>
                <mxCell id="607" style="edgeStyle=orthogonalEdgeStyle;rounded=0;html=1;" edge="1" parent="1" source="608" target="604">
                    <mxGeometry relative="1" as="geometry"/>
                </mxCell>
                <mxCell id="608" value="line3[i].parton = line2[i - 1].parton;" style="rounded=0;whiteSpace=wrap;html=1;" vertex="1" parent="1">
                    <mxGeometry x="311.25" y="5030" width="220" height="40" as="geometry"/>
                </mxCell>
                <mxCell id="609" style="edgeStyle=orthogonalEdgeStyle;rounded=0;html=1;" edge="1" parent="1" source="610" target="608">
                    <mxGeometry relative="1" as="geometry"/>
                </mxCell>
                <mxCell id="610" value="line3[i].name = line2[i - 1].name;" style="rounded=0;whiteSpace=wrap;html=1;" vertex="1" parent="1">
                    <mxGeometry x="311.25" y="4960" width="220" height="40" as="geometry"/>
                </mxCell>
                <mxCell id="611" style="edgeStyle=orthogonalEdgeStyle;rounded=0;html=1;entryX=-0.003;entryY=0.507;entryDx=0;entryDy=0;entryPerimeter=0;" edge="1" parent="1" source="612" target="600">
                    <mxGeometry relative="1" as="geometry">
                        <Array as="points">
                            <mxPoint x="421" y="5290"/>
                            <mxPoint x="270" y="5290"/>
                            <mxPoint x="270" y="4825"/>
                        </Array>
                    </mxGeometry>
                </mxCell>
                <mxCell id="612" value="line3[i].money = line2[i - 1].money;" style="rounded=0;whiteSpace=wrap;html=1;" vertex="1" parent="1">
                    <mxGeometry x="311.25" y="5230" width="220" height="40" as="geometry"/>
                </mxCell>
                <mxCell id="618" style="edgeStyle=orthogonalEdgeStyle;rounded=0;html=1;" edge="1" parent="1" source="614" target="616">
                    <mxGeometry relative="1" as="geometry"/>
                </mxCell>
                <mxCell id="614" value="ofstream f;" style="rounded=0;whiteSpace=wrap;html=1;" vertex="1" parent="1">
                    <mxGeometry x="311.25" y="5330" width="220" height="40" as="geometry"/>
                </mxCell>
                <mxCell id="620" style="edgeStyle=orthogonalEdgeStyle;rounded=0;html=1;" edge="1" parent="1" source="616" target="619">
                    <mxGeometry relative="1" as="geometry"/>
                </mxCell>
                <mxCell id="616" value="f.open(&quot;text.txt&quot;);" style="rounded=0;whiteSpace=wrap;html=1;" vertex="1" parent="1">
                    <mxGeometry x="311.25" y="5390" width="220" height="40" as="geometry"/>
                </mxCell>
                <mxCell id="622" value="1" style="edgeStyle=orthogonalEdgeStyle;rounded=0;html=1;" edge="1" parent="1" source="619" target="621">
                    <mxGeometry relative="1" as="geometry">
                        <Array as="points">
                            <mxPoint x="290" y="5490"/>
                        </Array>
                    </mxGeometry>
                </mxCell>
                <mxCell id="623" value="0" style="edgeStyle=orthogonalEdgeStyle;rounded=0;html=1;" edge="1" parent="1" source="619">
                    <mxGeometry x="-0.8696" relative="1" as="geometry">
                        <mxPoint x="421.25" y="5600" as="targetPoint"/>
                        <Array as="points">
                            <mxPoint x="550" y="5490"/>
                            <mxPoint x="550" y="5600"/>
                        </Array>
                        <mxPoint as="offset"/>
                    </mxGeometry>
                </mxCell>
                <mxCell id="619" value="if (!f.is_open())" style="rhombus;whiteSpace=wrap;html=1;" vertex="1" parent="1">
                    <mxGeometry x="341.25" y="5460" width="160" height="60" as="geometry"/>
                </mxCell>
                <mxCell id="624" style="edgeStyle=orthogonalEdgeStyle;rounded=0;html=1;" edge="1" parent="1" source="621">
                    <mxGeometry relative="1" as="geometry">
                        <mxPoint x="420" y="5600" as="targetPoint"/>
                        <Array as="points">
                            <mxPoint x="290" y="5600"/>
                        </Array>
                    </mxGeometry>
                </mxCell>
                <mxCell id="621" value="cout &amp;lt;&amp;lt; &quot;Ошибка открытия файла!&quot;;" style="shape=parallelogram;perimeter=parallelogramPerimeter;whiteSpace=wrap;html=1;fixedSize=1;" vertex="1" parent="1">
                    <mxGeometry x="170" y="5540" width="240" height="30" as="geometry"/>
                </mxCell>
                <mxCell id="628" value="1" style="edgeStyle=orthogonalEdgeStyle;rounded=0;html=1;" edge="1" parent="1" source="625" target="627">
                    <mxGeometry relative="1" as="geometry"/>
                </mxCell>
                <mxCell id="640" value="0" style="edgeStyle=orthogonalEdgeStyle;rounded=0;html=1;" edge="1" parent="1" source="625" target="639">
                    <mxGeometry x="-0.9138" relative="1" as="geometry">
                        <Array as="points">
                            <mxPoint x="650" y="5650"/>
                            <mxPoint x="650" y="6030"/>
                            <mxPoint x="421" y="6030"/>
                        </Array>
                        <mxPoint as="offset"/>
                    </mxGeometry>
                </mxCell>
                <mxCell id="625" value="for (int i = 0; i &amp;lt; n; i++)" style="shape=hexagon;perimeter=hexagonPerimeter2;whiteSpace=wrap;html=1;fixedSize=1;" vertex="1" parent="1">
                    <mxGeometry x="336.25" y="5630" width="170" height="40" as="geometry"/>
                </mxCell>
                <mxCell id="626" value="" style="endArrow=classic;html=1;rounded=0;" edge="1" parent="1" target="625">
                    <mxGeometry width="50" height="50" relative="1" as="geometry">
                        <mxPoint x="420" y="5600" as="sourcePoint"/>
                        <mxPoint x="530" y="5570" as="targetPoint"/>
                    </mxGeometry>
                </mxCell>
                <mxCell id="631" style="edgeStyle=orthogonalEdgeStyle;rounded=0;html=1;" edge="1" parent="1" source="627" target="629">
                    <mxGeometry relative="1" as="geometry"/>
                </mxCell>
                <mxCell id="627" value="f &amp;lt;&amp;lt; line3[i].postname &amp;lt;&amp;lt; &quot; &quot; &amp;lt;&amp;lt; line3[i].name &amp;lt;&amp;lt; &quot; &quot; &amp;lt;&amp;lt; line3[i].parton &amp;lt;&amp;lt; &quot;\n&quot;;" style="shape=parallelogram;perimeter=parallelogramPerimeter;whiteSpace=wrap;html=1;fixedSize=1;" vertex="1" parent="1">
                    <mxGeometry x="250.63" y="5710" width="341.25" height="40" as="geometry"/>
                </mxCell>
                <mxCell id="632" style="edgeStyle=orthogonalEdgeStyle;rounded=0;html=1;" edge="1" parent="1" source="629" target="630">
                    <mxGeometry relative="1" as="geometry"/>
                </mxCell>
                <mxCell id="629" value="f &amp;lt;&amp;lt; line3[i].post &amp;lt;&amp;lt; &quot;\n&quot;;" style="shape=parallelogram;perimeter=parallelogramPerimeter;whiteSpace=wrap;html=1;fixedSize=1;" vertex="1" parent="1">
                    <mxGeometry x="250.63" y="5770" width="341.25" height="40" as="geometry"/>
                </mxCell>
                <mxCell id="634" style="edgeStyle=orthogonalEdgeStyle;rounded=0;html=1;" edge="1" parent="1" source="630" target="633">
                    <mxGeometry relative="1" as="geometry"/>
                </mxCell>
                <mxCell id="630" value="f &amp;lt;&amp;lt; line3[i].birth &amp;lt;&amp;lt; &quot;\n&quot;;" style="shape=parallelogram;perimeter=parallelogramPerimeter;whiteSpace=wrap;html=1;fixedSize=1;" vertex="1" parent="1">
                    <mxGeometry x="250.63" y="5830" width="341.25" height="40" as="geometry"/>
                </mxCell>
                <mxCell id="636" style="edgeStyle=orthogonalEdgeStyle;rounded=0;html=1;" edge="1" parent="1" source="633">
                    <mxGeometry relative="1" as="geometry">
                        <mxPoint x="421.2549999999999" y="5950" as="targetPoint"/>
                    </mxGeometry>
                </mxCell>
                <mxCell id="633" value="f &amp;lt;&amp;lt; line3[i].money &amp;lt;&amp;lt; &quot;\n&quot;;" style="shape=parallelogram;perimeter=parallelogramPerimeter;whiteSpace=wrap;html=1;fixedSize=1;" vertex="1" parent="1">
                    <mxGeometry x="250.63" y="5890" width="341.25" height="40" as="geometry"/>
                </mxCell>
                <mxCell id="638" style="edgeStyle=orthogonalEdgeStyle;rounded=0;html=1;entryX=-0.002;entryY=0.529;entryDx=0;entryDy=0;entryPerimeter=0;" edge="1" parent="1" source="637" target="625">
                    <mxGeometry relative="1" as="geometry">
                        <Array as="points">
                            <mxPoint x="421" y="6020"/>
                            <mxPoint x="230" y="6020"/>
                            <mxPoint x="230" y="5651"/>
                        </Array>
                    </mxGeometry>
                </mxCell>
                <mxCell id="637" value="f &amp;lt;&amp;lt; &quot;\n&quot;;" style="shape=parallelogram;perimeter=parallelogramPerimeter;whiteSpace=wrap;html=1;fixedSize=1;" vertex="1" parent="1">
                    <mxGeometry x="250.63" y="5950" width="341.25" height="40" as="geometry"/>
                </mxCell>
                <mxCell id="654" style="edgeStyle=orthogonalEdgeStyle;rounded=0;html=1;" edge="1" parent="1" source="639" target="643">
                    <mxGeometry relative="1" as="geometry"/>
                </mxCell>
                <mxCell id="639" value="f &amp;lt;&amp;lt; &quot;\n&quot;;" style="shape=parallelogram;perimeter=parallelogramPerimeter;whiteSpace=wrap;html=1;fixedSize=1;" vertex="1" parent="1">
                    <mxGeometry x="250.63" y="6060" width="341.25" height="40" as="geometry"/>
                </mxCell>
                <mxCell id="642" value="1" style="edgeStyle=orthogonalEdgeStyle;rounded=0;html=1;" edge="1" parent="1" source="643" target="645">
                    <mxGeometry relative="1" as="geometry"/>
                </mxCell>
                <mxCell id="656" value="0" style="edgeStyle=orthogonalEdgeStyle;rounded=0;html=1;" edge="1" parent="1" source="643" target="655">
                    <mxGeometry relative="1" as="geometry">
                        <Array as="points">
                            <mxPoint x="630" y="6150"/>
                            <mxPoint x="630" y="6540"/>
                            <mxPoint x="421" y="6540"/>
                        </Array>
                    </mxGeometry>
                </mxCell>
                <mxCell id="643" value="for (int i = 0; i &amp;lt; n; i++)" style="shape=hexagon;perimeter=hexagonPerimeter2;whiteSpace=wrap;html=1;fixedSize=1;" vertex="1" parent="1">
                    <mxGeometry x="336.25" y="6130" width="170" height="40" as="geometry"/>
                </mxCell>
                <mxCell id="644" style="edgeStyle=orthogonalEdgeStyle;rounded=0;html=1;" edge="1" parent="1" source="645" target="647">
                    <mxGeometry relative="1" as="geometry"/>
                </mxCell>
                <mxCell id="645" value="f &amp;lt;&amp;lt; line[i].postname &amp;lt;&amp;lt; &quot; &quot; &amp;lt;&amp;lt; line[i].name &amp;lt;&amp;lt; &quot; &quot; &amp;lt;&amp;lt; line[i].parton &amp;lt;&amp;lt; &quot;\n&quot;;" style="shape=parallelogram;perimeter=parallelogramPerimeter;whiteSpace=wrap;html=1;fixedSize=1;" vertex="1" parent="1">
                    <mxGeometry x="250.63" y="6210" width="341.25" height="40" as="geometry"/>
                </mxCell>
                <mxCell id="646" style="edgeStyle=orthogonalEdgeStyle;rounded=0;html=1;" edge="1" parent="1" source="647" target="649">
                    <mxGeometry relative="1" as="geometry"/>
                </mxCell>
                <mxCell id="647" value="f &amp;lt;&amp;lt; line[i].post &amp;lt;&amp;lt; &quot;\n&quot;;" style="shape=parallelogram;perimeter=parallelogramPerimeter;whiteSpace=wrap;html=1;fixedSize=1;" vertex="1" parent="1">
                    <mxGeometry x="250.63" y="6270" width="341.25" height="40" as="geometry"/>
                </mxCell>
                <mxCell id="648" style="edgeStyle=orthogonalEdgeStyle;rounded=0;html=1;" edge="1" parent="1" source="649" target="651">
                    <mxGeometry relative="1" as="geometry"/>
                </mxCell>
                <mxCell id="649" value="f &amp;lt;&amp;lt; line[i].birth &amp;lt;&amp;lt; &quot;\n&quot;;" style="shape=parallelogram;perimeter=parallelogramPerimeter;whiteSpace=wrap;html=1;fixedSize=1;" vertex="1" parent="1">
                    <mxGeometry x="250.63" y="6330" width="341.25" height="40" as="geometry"/>
                </mxCell>
                <mxCell id="650" style="edgeStyle=orthogonalEdgeStyle;rounded=0;html=1;" edge="1" parent="1" source="651">
                    <mxGeometry relative="1" as="geometry">
                        <mxPoint x="421.2549999999999" y="6450" as="targetPoint"/>
                    </mxGeometry>
                </mxCell>
                <mxCell id="651" value="f &amp;lt;&amp;lt; line[i].money &amp;lt;&amp;lt; &quot;\n&quot;;" style="shape=parallelogram;perimeter=parallelogramPerimeter;whiteSpace=wrap;html=1;fixedSize=1;" vertex="1" parent="1">
                    <mxGeometry x="250.63" y="6390" width="341.25" height="40" as="geometry"/>
                </mxCell>
                <mxCell id="652" style="edgeStyle=orthogonalEdgeStyle;rounded=0;html=1;entryX=-0.002;entryY=0.529;entryDx=0;entryDy=0;entryPerimeter=0;" edge="1" parent="1" source="653" target="643">
                    <mxGeometry relative="1" as="geometry">
                        <Array as="points">
                            <mxPoint x="421" y="6520"/>
                            <mxPoint x="230" y="6520"/>
                            <mxPoint x="230" y="6151"/>
                        </Array>
                    </mxGeometry>
                </mxCell>
                <mxCell id="653" value="f &amp;lt;&amp;lt; &quot;\n&quot;;" style="shape=parallelogram;perimeter=parallelogramPerimeter;whiteSpace=wrap;html=1;fixedSize=1;" vertex="1" parent="1">
                    <mxGeometry x="250.63" y="6450" width="341.25" height="40" as="geometry"/>
                </mxCell>
                <mxCell id="655" value="f.close();" style="rounded=0;whiteSpace=wrap;html=1;" vertex="1" parent="1">
                    <mxGeometry x="311.25" y="6560" width="220" height="40" as="geometry"/>
                </mxCell>
                <mxCell id="663" style="edgeStyle=orthogonalEdgeStyle;rounded=0;html=1;" edge="1" parent="1" source="657" target="661">
                    <mxGeometry relative="1" as="geometry"/>
                </mxCell>
                <mxCell id="657" value="delete[]line;" style="rounded=0;whiteSpace=wrap;html=1;" vertex="1" parent="1">
                    <mxGeometry x="311.25" y="6620" width="220" height="40" as="geometry"/>
                </mxCell>
                <mxCell id="658" value="f.close();" style="rounded=0;whiteSpace=wrap;html=1;" vertex="1" parent="1">
                    <mxGeometry x="311.25" y="6560" width="220" height="40" as="geometry"/>
                </mxCell>
                <mxCell id="662" style="edgeStyle=orthogonalEdgeStyle;rounded=0;html=1;" edge="1" parent="1" source="659" target="657">
                    <mxGeometry relative="1" as="geometry"/>
                </mxCell>
                <mxCell id="659" value="f.close();" style="rounded=0;whiteSpace=wrap;html=1;" vertex="1" parent="1">
                    <mxGeometry x="311.25" y="6560" width="220" height="40" as="geometry"/>
                </mxCell>
                <mxCell id="660" value="delete[]line3;" style="rounded=0;whiteSpace=wrap;html=1;" vertex="1" parent="1">
                    <mxGeometry x="311.25" y="6740" width="220" height="40" as="geometry"/>
                </mxCell>
                <mxCell id="664" style="edgeStyle=orthogonalEdgeStyle;rounded=0;html=1;" edge="1" parent="1" source="661" target="660">
                    <mxGeometry relative="1" as="geometry"/>
                </mxCell>
                <mxCell id="661" value="delete[]line2;" style="rounded=0;whiteSpace=wrap;html=1;" vertex="1" parent="1">
                    <mxGeometry x="311.25" y="6680" width="220" height="40" as="geometry"/>
                </mxCell>
                <mxCell id="674" style="edgeStyle=orthogonalEdgeStyle;rounded=0;html=1;" edge="1" parent="1" source="665" target="669">
                    <mxGeometry relative="1" as="geometry"/>
                </mxCell>
                <mxCell id="665" value="workers* line3 = new workers[10];" style="rounded=0;whiteSpace=wrap;html=1;" vertex="1" parent="1">
                    <mxGeometry x="305" width="140" height="45" as="geometry"/>
                </mxCell>
                <mxCell id="666" value="SetConsoleCP(1251);" style="rounded=0;whiteSpace=wrap;html=1;" vertex="1" parent="1">
                    <mxGeometry x="305" y="250" width="140" height="45" as="geometry"/>
                </mxCell>
                <mxCell id="667" value="SetConsoleCP(1251);" style="rounded=0;whiteSpace=wrap;html=1;" vertex="1" parent="1">
                    <mxGeometry x="305" y="250" width="140" height="45" as="geometry"/>
                </mxCell>
                <mxCell id="675" style="edgeStyle=orthogonalEdgeStyle;rounded=0;html=1;" edge="1" parent="1" source="669" target="354">
                    <mxGeometry relative="1" as="geometry"/>
                </mxCell>
                <mxCell id="669" value="workers tmpWork;" style="rounded=0;whiteSpace=wrap;html=1;" vertex="1" parent="1">
                    <mxGeometry x="305" y="70" width="140" height="45" as="geometry"/>
                </mxCell>
                <mxCell id="672" style="edgeStyle=orthogonalEdgeStyle;rounded=0;html=1;" edge="1" parent="1" source="670" target="671">
                    <mxGeometry relative="1" as="geometry"/>
                </mxCell>
                <mxCell id="670" value="workers* line = new workers[10];" style="rounded=0;whiteSpace=wrap;html=1;" vertex="1" parent="1">
                    <mxGeometry x="305" y="-150" width="140" height="45" as="geometry"/>
                </mxCell>
                <mxCell id="673" style="edgeStyle=orthogonalEdgeStyle;rounded=0;html=1;" edge="1" parent="1" source="671" target="665">
                    <mxGeometry relative="1" as="geometry"/>
                </mxCell>
                <mxCell id="671" value="workers* line2 = new workers[10];" style="rounded=0;whiteSpace=wrap;html=1;" vertex="1" parent="1">
                    <mxGeometry x="305" y="-70" width="140" height="45" as="geometry"/>
                </mxCell>
                <mxCell id="684" style="edgeStyle=orthogonalEdgeStyle;rounded=0;html=1;" edge="1" parent="1" source="677" target="678">
                    <mxGeometry relative="1" as="geometry"/>
                </mxCell>
                <mxCell id="677" value="struct workers {" style="ellipse;whiteSpace=wrap;html=1;" vertex="1" parent="1">
                    <mxGeometry x="760" y="150" width="120" height="60" as="geometry"/>
                </mxCell>
                <mxCell id="685" style="edgeStyle=orthogonalEdgeStyle;rounded=0;html=1;" edge="1" parent="1" source="678" target="679">
                    <mxGeometry relative="1" as="geometry"/>
                </mxCell>
                <mxCell id="678" value="string name;" style="rounded=0;whiteSpace=wrap;html=1;" vertex="1" parent="1">
                    <mxGeometry x="750" y="250" width="140" height="45" as="geometry"/>
                </mxCell>
                <mxCell id="686" style="edgeStyle=orthogonalEdgeStyle;rounded=0;html=1;" edge="1" parent="1" source="679" target="680">
                    <mxGeometry relative="1" as="geometry"/>
                </mxCell>
                <mxCell id="679" value="string postname;" style="rounded=0;whiteSpace=wrap;html=1;" vertex="1" parent="1">
                    <mxGeometry x="750" y="320" width="140" height="45" as="geometry"/>
                </mxCell>
                <mxCell id="687" style="edgeStyle=orthogonalEdgeStyle;rounded=0;html=1;" edge="1" parent="1" source="680" target="683">
                    <mxGeometry relative="1" as="geometry"/>
                </mxCell>
                <mxCell id="680" value="string parton;" style="rounded=0;whiteSpace=wrap;html=1;" vertex="1" parent="1">
                    <mxGeometry x="750" y="390" width="140" height="45" as="geometry"/>
                </mxCell>
                <mxCell id="691" style="edgeStyle=orthogonalEdgeStyle;rounded=0;html=1;" edge="1" parent="1" source="681" target="690">
                    <mxGeometry relative="1" as="geometry"/>
                </mxCell>
                <mxCell id="681" value="string money;" style="rounded=0;whiteSpace=wrap;html=1;" vertex="1" parent="1">
                    <mxGeometry x="750" y="600" width="140" height="45" as="geometry"/>
                </mxCell>
                <mxCell id="689" style="edgeStyle=orthogonalEdgeStyle;rounded=0;html=1;" edge="1" parent="1" source="682" target="681">
                    <mxGeometry relative="1" as="geometry"/>
                </mxCell>
                <mxCell id="682" value="string birth;" style="rounded=0;whiteSpace=wrap;html=1;" vertex="1" parent="1">
                    <mxGeometry x="750" y="530" width="140" height="45" as="geometry"/>
                </mxCell>
                <mxCell id="688" style="edgeStyle=orthogonalEdgeStyle;rounded=0;html=1;" edge="1" parent="1" source="683" target="682">
                    <mxGeometry relative="1" as="geometry"/>
                </mxCell>
                <mxCell id="683" value="string post;" style="rounded=0;whiteSpace=wrap;html=1;" vertex="1" parent="1">
                    <mxGeometry x="750" y="460" width="140" height="45" as="geometry"/>
                </mxCell>
                <mxCell id="690" value="Конец" style="ellipse;whiteSpace=wrap;html=1;" vertex="1" parent="1">
                    <mxGeometry x="760" y="670" width="120" height="60" as="geometry"/>
                </mxCell>
                <mxCell id="692" value="1" style="edgeStyle=orthogonalEdgeStyle;rounded=0;html=1;" edge="1" parent="1" source="693">
                    <mxGeometry relative="1" as="geometry">
                        <mxPoint x="1220.5" y="420" as="targetPoint"/>
                    </mxGeometry>
                </mxCell>
                <mxCell id="693" value="for (int i = 0; i &amp;lt; n; i++)" style="shape=hexagon;perimeter=hexagonPerimeter2;whiteSpace=wrap;html=1;fixedSize=1;" vertex="1" parent="1">
                    <mxGeometry x="1140.5" y="330" width="160" height="50" as="geometry"/>
                </mxCell>
                <mxCell id="707" style="edgeStyle=orthogonalEdgeStyle;rounded=0;html=1;" edge="1" parent="1" source="708" target="710">
                    <mxGeometry relative="1" as="geometry"/>
                </mxCell>
                <mxCell id="708" value="cout &amp;lt;&amp;lt; &quot;Введите Фамилию: &quot;;" style="shape=parallelogram;perimeter=parallelogramPerimeter;whiteSpace=wrap;html=1;fixedSize=1;" vertex="1" parent="1">
                    <mxGeometry x="1079.25" y="420" width="282.5" height="40" as="geometry"/>
                </mxCell>
                <mxCell id="709" style="edgeStyle=orthogonalEdgeStyle;rounded=0;html=1;" edge="1" parent="1" source="710" target="712">
                    <mxGeometry relative="1" as="geometry"/>
                </mxCell>
                <mxCell id="710" value="cin &amp;gt;&amp;gt; line[i].postname;" style="shape=parallelogram;perimeter=parallelogramPerimeter;whiteSpace=wrap;html=1;fixedSize=1;" vertex="1" parent="1">
                    <mxGeometry x="1079.25" y="490" width="282.5" height="40" as="geometry"/>
                </mxCell>
                <mxCell id="711" style="edgeStyle=orthogonalEdgeStyle;rounded=0;html=1;" edge="1" parent="1" source="712" target="714">
                    <mxGeometry relative="1" as="geometry"/>
                </mxCell>
                <mxCell id="712" value="cout &amp;lt;&amp;lt; &quot;Введите Имя: &quot;;" style="shape=parallelogram;perimeter=parallelogramPerimeter;whiteSpace=wrap;html=1;fixedSize=1;" vertex="1" parent="1">
                    <mxGeometry x="1079.25" y="550" width="282.5" height="40" as="geometry"/>
                </mxCell>
                <mxCell id="713" style="edgeStyle=orthogonalEdgeStyle;rounded=0;html=1;" edge="1" parent="1" source="714" target="716">
                    <mxGeometry relative="1" as="geometry"/>
                </mxCell>
                <mxCell id="714" value="cin &amp;gt;&amp;gt; line[i].name;" style="shape=parallelogram;perimeter=parallelogramPerimeter;whiteSpace=wrap;html=1;fixedSize=1;" vertex="1" parent="1">
                    <mxGeometry x="1079.25" y="620" width="282.5" height="40" as="geometry"/>
                </mxCell>
                <mxCell id="715" style="edgeStyle=orthogonalEdgeStyle;rounded=0;html=1;" edge="1" parent="1" source="716" target="718">
                    <mxGeometry relative="1" as="geometry"/>
                </mxCell>
                <mxCell id="716" value="cout &amp;lt;&amp;lt; &quot;Введите Отчество: &quot;;" style="shape=parallelogram;perimeter=parallelogramPerimeter;whiteSpace=wrap;html=1;fixedSize=1;" vertex="1" parent="1">
                    <mxGeometry x="1079.25" y="680" width="282.5" height="40" as="geometry"/>
                </mxCell>
                <mxCell id="717" style="edgeStyle=orthogonalEdgeStyle;rounded=0;html=1;" edge="1" parent="1" source="718" target="720">
                    <mxGeometry relative="1" as="geometry"/>
                </mxCell>
                <mxCell id="718" value="cin &amp;gt;&amp;gt; line[i].parton;" style="shape=parallelogram;perimeter=parallelogramPerimeter;whiteSpace=wrap;html=1;fixedSize=1;" vertex="1" parent="1">
                    <mxGeometry x="1079.25" y="750" width="282.5" height="40" as="geometry"/>
                </mxCell>
                <mxCell id="719" style="edgeStyle=orthogonalEdgeStyle;rounded=0;html=1;" edge="1" parent="1" source="720" target="722">
                    <mxGeometry relative="1" as="geometry"/>
                </mxCell>
                <mxCell id="720" value="cout &amp;lt;&amp;lt; &quot;Введите Должность: &quot;;" style="shape=parallelogram;perimeter=parallelogramPerimeter;whiteSpace=wrap;html=1;fixedSize=1;" vertex="1" parent="1">
                    <mxGeometry x="1079.25" y="810" width="282.5" height="40" as="geometry"/>
                </mxCell>
                <mxCell id="721" style="edgeStyle=orthogonalEdgeStyle;rounded=0;html=1;" edge="1" parent="1" source="722" target="724">
                    <mxGeometry relative="1" as="geometry"/>
                </mxCell>
                <mxCell id="722" value="cin &amp;gt;&amp;gt; line[i].post;" style="shape=parallelogram;perimeter=parallelogramPerimeter;whiteSpace=wrap;html=1;fixedSize=1;" vertex="1" parent="1">
                    <mxGeometry x="1079.25" y="880" width="282.5" height="40" as="geometry"/>
                </mxCell>
                <mxCell id="723" style="edgeStyle=orthogonalEdgeStyle;rounded=0;html=1;" edge="1" parent="1" source="724" target="726">
                    <mxGeometry relative="1" as="geometry"/>
                </mxCell>
                <mxCell id="724" value="cout &amp;lt;&amp;lt; &quot;Введите Дату Рождения: &quot;;" style="shape=parallelogram;perimeter=parallelogramPerimeter;whiteSpace=wrap;html=1;fixedSize=1;" vertex="1" parent="1">
                    <mxGeometry x="1079.25" y="940" width="282.5" height="40" as="geometry"/>
                </mxCell>
                <mxCell id="725" style="edgeStyle=orthogonalEdgeStyle;rounded=0;html=1;" edge="1" parent="1" source="726" target="728">
                    <mxGeometry relative="1" as="geometry"/>
                </mxCell>
                <mxCell id="726" value="cin &amp;gt;&amp;gt; line[i].birth;" style="shape=parallelogram;perimeter=parallelogramPerimeter;whiteSpace=wrap;html=1;fixedSize=1;" vertex="1" parent="1">
                    <mxGeometry x="1079.25" y="1010" width="282.5" height="40" as="geometry"/>
                </mxCell>
                <mxCell id="727" style="edgeStyle=orthogonalEdgeStyle;rounded=0;html=1;" edge="1" parent="1" source="728" target="730">
                    <mxGeometry relative="1" as="geometry"/>
                </mxCell>
                <mxCell id="728" value="cout &amp;lt;&amp;lt; &quot;Введите Заработную плату: &quot;;" style="shape=parallelogram;perimeter=parallelogramPerimeter;whiteSpace=wrap;html=1;fixedSize=1;" vertex="1" parent="1">
                    <mxGeometry x="1079.25" y="1070" width="282.5" height="40" as="geometry"/>
                </mxCell>
                <mxCell id="729" style="edgeStyle=orthogonalEdgeStyle;rounded=0;html=1;" edge="1" parent="1" source="730" target="731">
                    <mxGeometry relative="1" as="geometry"/>
                </mxCell>
                <mxCell id="730" value="cin &amp;gt;&amp;gt; line[i].money;" style="shape=parallelogram;perimeter=parallelogramPerimeter;whiteSpace=wrap;html=1;fixedSize=1;" vertex="1" parent="1">
                    <mxGeometry x="1079.25" y="1140" width="282.5" height="40" as="geometry"/>
                </mxCell>
                <mxCell id="731" value="cout &amp;lt;&amp;lt; endl;" style="shape=parallelogram;perimeter=parallelogramPerimeter;whiteSpace=wrap;html=1;fixedSize=1;" vertex="1" parent="1">
                    <mxGeometry x="1079.25" y="1200" width="282.5" height="40" as="geometry"/>
                </mxCell>
            </root>
        </mxGraphModel>
    </diagram>
</mxfile>